<svg width="28" height="28" viewBox="0 0 28 28" fill="none" xmlns="http://www.w3.org/2000/svg">
<path d="M13.6992 27.5V25.7812H24.7209C24.9848 25.7812 25.2274 25.6712 25.4488 25.4512C25.6702 25.2312 25.7804 24.9883 25.7792 24.7225V2.7775C25.7792 2.51281 25.6691 2.2699 25.4488 2.04875C25.2286 1.8276 24.9853 1.7176 24.7192 1.71875H13.701V0H24.7209C25.5125 0 26.1733 0.26526 26.7033 0.795781C27.2333 1.3263 27.4989 1.98688 27.5 2.7775V24.7242C27.5 25.5148 27.2344 26.1754 26.7033 26.7059C26.1721 27.2365 25.5113 27.5011 24.7209 27.5H13.6992ZM12.4775 19.8327L11.2678 18.5952L15.26 14.6094H0V12.8906H15.26L11.2678 8.90312L12.4758 7.66906L18.5656 13.75L12.4775 19.8327Z" fill="white"/>
</svg>
