<svg width="41" height="42" viewBox="0 0 41 42" fill="none" xmlns="http://www.w3.org/2000/svg">
<path d="M27 15.3589V38.9999C27 40.1045 26.1046 40.9999 25 40.9999H3C1.89543 40.9999 1 40.1045 1 38.9999V7.10248C1 5.99791 1.89543 5.10248 3 5.10248H17.5M27 15.3589H17.5M27 15.3589V14.8461L17.5 5.10248M17.5 15.3589V5.10248M17.5 15.3589V6.64094" stroke="white"/>
<path d="M40 11.2564V34.8974C40 36.002 39.1046 36.8974 38 36.8974H30.5M40 11.2564H30.5M40 11.2564V10.7436L30.5 1M30.5 11.2564V1M30.5 11.2564V2.53846M30.5 1H15.5385C14.6888 1 14 1.68879 14 2.53846V2.53846" stroke="white"/>
</svg>
