<svg width="22" height="23" viewBox="0 0 22 23" fill="none" xmlns="http://www.w3.org/2000/svg">
<path d="M21.4844 5.67821L16.5695 0.539052C16.4061 0.368154 16.212 0.232588 15.9985 0.140096C15.7849 0.0476051 15.556 0 15.3248 0C15.0937 0 14.8648 0.0476051 14.6512 0.140096C14.4377 0.232588 14.2436 0.368154 14.0802 0.539052L0.515915 14.7203C0.35177 14.8905 0.221632 15.0932 0.133065 15.3165C0.0444987 15.5397 -0.000729792 15.7792 8.90455e-06 16.0209V21.1601C8.90455e-06 21.648 0.185439 22.116 0.515507 22.4611C0.845575 22.8061 1.29324 23 1.76003 23H6.67599C6.9072 23.0008 7.13626 22.9535 7.34984 22.8609C7.56342 22.7683 7.75726 22.6323 7.9201 22.4607L21.4844 8.28055C21.6478 8.1097 21.7775 7.90685 21.866 7.68359C21.9545 7.46033 22 7.22104 22 6.97938C22 6.73772 21.9545 6.49843 21.866 6.27517C21.7775 6.05191 21.6478 5.84906 21.4844 5.67821ZM2.12413 15.6403L11.4401 5.9013L13.2761 7.82057L3.96005 17.5584L2.12413 15.6403ZM1.76003 17.8608L4.91597 21.1601H1.76003V17.8608ZM7.04009 20.7794L5.20417 18.8601L14.5202 9.12117L16.3561 11.0404L7.04009 20.7794ZM17.6002 9.73985L12.6843 4.6007L15.3243 1.8408L20.2402 6.97881L17.6002 9.73985Z" fill="#D49E3C"/>
</svg>
