<svg width="70" height="80" viewBox="0 0 70 80" fill="none" xmlns="http://www.w3.org/2000/svg">
<path d="M36.8135 0C29.6829 0 23.9378 5.73037 23.9378 12.8427C23.9378 19.9548 29.6829 25.6857 36.8135 25.6857C43.944 25.6857 49.6891 19.9548 49.6891 12.8427C49.6891 5.73037 43.944 0 36.8135 0ZM10.6995 5.78825C5.17148 5.78825 0.725389 10.223 0.725389 15.7368C0.725389 21.2505 5.17148 25.6857 10.6995 25.6857C16.2275 25.6857 20.6736 21.2505 20.6736 15.7368C20.6736 10.223 16.2275 5.78825 10.6995 5.78825ZM6.5285 28.9413V48.8388H49.6891V28.9413H6.5285ZM70 29.782L52.9534 37.0689V40.7106L70 47.9975V29.782ZM0 30.2074V35.9957H3.26425V30.2074H0ZM20.4922 52.0947V55.3502H22.8519L13.5809 80H17.0668L26.4074 55.3502L26.4767 80H29.7409L29.8102 55.3502L39.1509 80H42.6367L33.3657 55.3502H35.7254V52.0947C30.6471 52.0941 25.5705 52.0947 20.4922 52.0947Z" fill="black"/>
</svg>
