<svg width="80" height="80" viewBox="0 0 80 80" fill="none" xmlns="http://www.w3.org/2000/svg">
<path d="M80 34.591L72.2667 26.8447L63.6 35.5259C63.2 35.9265 62.5333 35.9265 62.2667 35.5259L44.5333 17.7629C44.1333 17.3623 44.1333 16.6945 44.5333 16.4274L53.2 7.74624L45.4667 0L0 45.5426L7.73333 53.2888L16.1333 44.8748C16.5333 44.4741 17.2 44.4741 17.4667 44.8748L35.0667 62.5042C35.4667 62.9048 35.4667 63.5726 35.0667 63.8397L26.6667 72.2538L34.4 80L80 34.591ZM69.7333 34.591C69.3333 34.1903 69.3333 33.6561 69.7333 33.389L72.4 30.7179C72.8 30.3172 73.3333 30.3172 73.6 30.7179L76.2667 33.389C76.6667 33.7896 76.6667 34.3239 76.2667 34.591L73.6 37.2621C73.2 37.6628 72.6667 37.6628 72.4 37.2621L69.7333 34.591ZM42.8 7.61269C42.4 7.21202 42.4 6.6778 42.8 6.41068L45.4667 3.73957C45.8667 3.3389 46.4 3.3389 46.6667 3.73957L49.3333 6.41068C49.7333 6.81135 49.7333 7.34558 49.3333 7.61269L46.6667 10.2838C46.2667 10.6845 45.7333 10.6845 45.4667 10.2838L42.8 7.61269ZM10.1333 45.5426C10.5333 45.9432 10.5333 46.4775 10.1333 46.7446L7.46667 49.4157C7.06667 49.8164 6.53333 49.8164 6.26667 49.4157L3.6 46.7446C3.2 46.3439 3.2 45.8097 3.6 45.5426L6.26667 42.8714C6.66667 42.4708 7.2 42.4708 7.46667 42.8714L10.1333 45.5426ZM52.8 56.7613C53.2 57.1619 53.2 57.6962 52.8 57.9633L50.1333 60.6344C49.7333 61.0351 49.2 61.0351 48.9333 60.6344L46.2667 57.9633C45.8667 57.5626 45.8667 57.0284 46.2667 56.7613L48.9333 54.0901C49.3333 53.6895 49.8667 53.6895 50.1333 54.0901L52.8 56.7613ZM60.5333 48.8815C60.9333 49.2821 60.9333 49.8164 60.5333 50.0835L57.8667 52.7546C57.4667 53.1553 56.9333 53.1553 56.6667 52.7546L54 50.0835C53.6 49.6828 53.6 49.1486 54 48.8815L56.6667 46.2103C57.0667 45.8097 57.6 45.8097 57.8667 46.2103L60.5333 48.8815ZM34.9333 15.3589C34.5333 14.9583 34.5333 14.424 34.9333 14.1569L37.6 11.4858C38 11.0851 38.5333 11.0851 38.8 11.4858L41.4667 14.1569C41.8667 14.5576 41.8667 15.0918 41.4667 15.3589L38.8 18.0301C38.4 18.4307 37.8667 18.4307 37.6 18.0301L34.9333 15.3589ZM61.8667 42.3372C61.4667 41.9366 61.4667 41.4023 61.8667 41.1352L64.5333 38.4641C64.9333 38.0634 65.4667 38.0634 65.7333 38.4641L68.4 41.1352C68.8 41.5359 68.8 42.0701 68.4 42.3372L65.7333 45.0083C65.3333 45.409 64.8 45.409 64.5333 45.0083L61.8667 42.3372ZM27.2 23.2387C26.8 22.8381 26.8 22.3038 27.2 22.0367L29.8667 19.3656C30.2667 18.9649 30.8 18.9649 31.0667 19.3656L33.7333 22.0367C34.1333 22.4374 34.1333 22.9716 33.7333 23.2387L31.0667 25.9098C30.6667 26.3105 30.1333 26.3105 29.8667 25.9098L27.2 23.2387ZM19.3333 31.1185C18.9333 30.7179 18.9333 30.1836 19.3333 29.9165L22 27.2454C22.4 26.8447 22.9333 26.8447 23.2 27.2454L25.8667 29.9165C26.2667 30.3172 26.2667 30.8514 25.8667 31.1185L23.2 33.7896C22.8 34.1903 22.2667 34.1903 22 33.7896L19.3333 31.1185ZM21.7333 40.7346C21.3333 40.3339 21.3333 39.6661 21.7333 39.399L39.3333 21.7696C39.7333 21.3689 40.4 21.3689 40.6667 21.7696L58.2667 39.399C58.6667 39.7997 58.6667 40.4674 58.2667 40.7346L40.6667 58.3639C40.2667 58.7646 39.6 58.7646 39.3333 58.3639L21.7333 40.7346ZM11.4667 38.8648C11.0667 38.4641 11.0667 37.9299 11.4667 37.6628L14.1333 34.9917C14.5333 34.591 15.0667 34.591 15.3333 34.9917L18 37.6628C18.4 38.0634 18.4 38.5977 18 38.8648L15.3333 41.5359C14.9333 41.9366 14.4 41.9366 14.1333 41.5359L11.4667 38.8648ZM38.4 65.8431C38 65.4424 38 64.9082 38.4 64.6411L41.0667 61.97C41.4667 61.5693 42 61.5693 42.2667 61.97L44.9333 64.6411C45.3333 65.0417 45.3333 65.576 44.9333 65.8431L42.2667 68.5142C41.8667 68.9149 41.3333 68.9149 41.0667 68.5142L38.4 65.8431ZM30.5333 73.7229C30.1333 73.3222 30.1333 72.788 30.5333 72.5209L33.2 69.8497C33.6 69.4491 34.1333 69.4491 34.4 69.8497L37.0667 72.5209C37.4667 72.9215 37.4667 73.4558 37.0667 73.7229L34.4 76.394C34 76.7947 33.4667 76.7947 33.2 76.394L30.5333 73.7229Z" fill="black"/>
</svg>
