<svg width="83" height="80" viewBox="0 0 83 80" fill="none" xmlns="http://www.w3.org/2000/svg">
<path d="M78.2869 0L62.3192 3.14833L73.4519 17.4369L81.4561 15.8224L78.2869 0ZM50.374 5.4894L42.3698 7.06357L53.5431 21.3118L61.5066 19.7376L50.374 5.4894ZM30.4652 9.36428L22.461 11.0192L33.6343 25.2674L41.5978 23.6932L30.4652 9.36428ZM10.5157 13.4006L6.53397 14.1675C4.42275 14.5866 2.56522 15.8208 1.36923 17.5992C0.17323 19.3776 -0.263463 21.5549 0.155028 23.6529L1.73961 31.5641L21.6484 27.6488L10.5157 13.4006ZM1.73961 31.5641V71.9273C1.73961 74.0683 2.59574 76.1217 4.11967 77.6356C5.6436 79.1495 7.71049 80 9.86565 80H74.874C79.3839 80 83 76.4077 83 71.9273V31.5641H1.73961Z" fill="black"/>
</svg>
