<svg width="77" height="80" viewBox="0 0 77 80" fill="none" xmlns="http://www.w3.org/2000/svg">
<g clip-path="url(#clip0_87_1936)">
<path d="M0 45.8333C0 64.7033 15.3632 80 34.3152 80C53.2673 80 68.6304 64.7033 68.6304 45.8333C68.4204 39.4008 66.6627 33.1124 63.5049 27.4967L63.6087 27.7C61.9077 25.4922 60.9884 22.7859 60.994 20.0033C60.994 14.17 67.1741 8.33333 73.6488 8.33333H74.4757C75.5567 8.29114 76.5793 7.83414 77.3294 7.05805C78.0795 6.28195 78.499 5.24697 78.4998 4.16987C78.5007 3.09277 78.0829 2.05712 77.3341 1.27983C76.5852 0.502541 75.5633 0.0439104 74.4824 0L73.6388 0C63.3442 0 54.5361 5.46667 52.447 16.6667C47.0614 13.1274 40.6879 11.3782 34.2416 11.67L34.3052 11.6667C15.3598 11.6767 0.00669565 26.9667 0.00334783 45.83L0 45.8333ZM30.1304 45.8333C30.1311 45.0094 30.3771 44.2041 30.8373 43.5194C31.2976 42.8346 31.9514 42.3011 32.7161 41.9862C33.4808 41.6714 34.3221 41.5893 35.1337 41.7505C35.9452 41.9116 36.6906 42.3087 37.2755 42.8916C37.8604 43.4744 38.2586 44.2169 38.4198 45.025C38.581 45.8332 38.498 46.6708 38.1811 47.4319C37.8643 48.1931 37.3279 48.8437 36.6398 49.3014C35.9517 49.759 35.1427 50.0033 34.3152 50.0033H34.3052C33.1976 49.9998 32.1366 49.5593 31.3547 48.7782C30.5728 47.9972 30.1338 46.9394 30.1338 45.8367L30.1304 45.8333ZM8.36957 45.8333C8.3709 43.8473 9.16438 41.9431 10.5755 40.5395C11.9867 39.1358 13.9 38.3477 15.8946 38.3483C17.8893 38.349 19.8021 39.1384 21.2123 40.543C22.6225 41.9476 23.4147 43.8523 23.4147 45.8383C23.4147 47.8244 22.6225 49.7291 21.2123 51.1337C19.8021 52.5383 17.8893 53.3277 15.8946 53.3283C13.9 53.329 11.9867 52.5409 10.5755 51.1372C9.16438 49.7336 8.3709 47.8294 8.36957 45.8433V45.8333ZM45.1957 45.8333C45.197 43.8473 45.9905 41.9431 47.4016 40.5395C48.8128 39.1358 50.7261 38.3477 52.7207 38.3483C54.7154 38.349 56.6281 39.1384 58.0384 40.543C59.4486 41.9476 60.2408 43.8523 60.2408 45.8383C60.2408 47.8244 59.4486 49.7291 58.0384 51.1337C56.6281 52.5383 54.7154 53.3277 52.7207 53.3283C50.7261 53.329 48.8128 52.5409 47.4016 51.1372C45.9905 49.7336 45.197 47.8294 45.1957 45.8433V45.8333ZM26.7826 64.1667C26.7826 62.6833 27.2244 61.2333 28.0521 59.9999C28.8798 58.7665 30.0562 57.8052 31.4326 57.2376C32.809 56.6699 34.3236 56.5214 35.7848 56.8108C37.2459 57.1002 38.5881 57.8145 39.6416 58.8634C40.695 59.9123 41.4124 61.2486 41.7031 62.7035C41.9937 64.1583 41.8446 65.6663 41.2744 67.0368C40.7043 68.4072 39.7388 69.5786 38.5001 70.4027C37.2614 71.2268 35.805 71.6667 34.3152 71.6667H34.3018C32.3064 71.6631 30.3939 70.8714 28.9841 69.4653C27.5744 68.0591 26.7826 66.1535 26.7826 64.1667ZM26.7826 27.5C26.783 26.5164 26.9781 25.5425 27.3565 24.634C27.735 23.7254 28.2894 22.8999 28.9883 22.2047C29.6871 21.5095 30.5167 20.9582 31.4295 20.5822C32.3424 20.2062 33.3206 20.0129 34.3085 20.0133C35.2964 20.0138 36.2745 20.2079 37.187 20.5848C38.0995 20.9616 38.9286 21.5136 39.6268 22.2095C40.325 22.9053 40.8788 23.7312 41.2564 24.6401C41.634 25.549 41.8282 26.5231 41.8277 27.5067C41.8277 29.4931 41.0352 31.3982 39.6244 32.8029C38.2137 34.2075 36.3003 34.9967 34.3052 34.9967C32.3101 34.9967 30.3967 34.2075 28.9859 32.8029C27.5752 31.3982 26.7826 29.4931 26.7826 27.5067V27.5Z" fill="black"/>
</g>
<defs>
<clipPath id="clip0_87_1936">
<rect width="77" height="80" fill="white"/>
</clipPath>
</defs>
</svg>
