<svg width="80" height="80" viewBox="0 0 80 80" fill="none" xmlns="http://www.w3.org/2000/svg">
<path d="M64.7771 51.5194V38.2284C64.7771 37.2213 64.3761 36.2554 63.6624 35.5433C62.9487 34.8311 61.9807 34.431 60.9713 34.431H57.1656C65.6904 28.3172 67.6694 16.4693 61.5422 7.84913C58.5771 3.782 54.1214 1.04883 49.1458 0.245082C44.1702 -0.558667 39.0778 0.632133 34.9782 3.55805C32.4283 5.38081 30.3732 7.84913 29.0032 10.6212C26.8764 9.30658 24.5101 8.42461 22.0404 8.02611C19.5707 7.62761 17.0464 7.72045 14.6129 8.29928C12.1793 8.87812 9.88444 9.93151 7.86048 11.3988C5.83652 12.8661 4.1234 14.7184 2.81973 16.849C0.176066 21.1396 -0.651546 26.3023 0.518887 31.2016C1.68932 36.101 4.76196 40.336 9.06113 42.9752C9.86033 43.4309 10.6595 43.9246 11.4968 44.2284V76.2026C11.4968 77.2097 11.8978 78.1756 12.6115 78.8878C13.3252 79.5999 14.2932 80 15.3025 80H60.9713C61.9807 80 62.9487 79.5999 63.6624 78.8878C64.3761 78.1756 64.7771 77.2097 64.7771 76.2026V62.9116L80 78.1013V36.3297L64.7771 51.5194ZM45.7484 11.6465C47.7671 11.6465 49.7031 12.4467 51.1305 13.871C52.5579 15.2953 53.3599 17.2271 53.3599 19.2414C53.3599 21.2556 52.5579 23.1874 51.1305 24.6117C49.7031 26.036 47.7671 26.8362 45.7484 26.8362C43.7297 26.8362 41.7937 26.036 40.3663 24.6117C38.9389 23.1874 38.1369 21.2556 38.1369 19.2414C38.1369 17.2271 38.9389 15.2953 40.3663 13.871C41.7937 12.4467 43.7297 11.6465 45.7484 11.6465ZM19.1083 19.2414C21.127 19.2414 23.063 20.0415 24.4904 21.4658C25.9178 22.8902 26.7197 24.8219 26.7197 26.8362C26.7197 28.8505 25.9178 30.7823 24.4904 32.2066C23.063 33.6309 21.127 34.431 19.1083 34.431C17.0896 34.431 15.1536 33.6309 13.7261 32.2066C12.2987 30.7823 11.4968 28.8505 11.4968 26.8362C11.4968 24.8219 12.2987 22.8902 13.7261 21.4658C15.1536 20.0415 17.0896 19.2414 19.1083 19.2414Z" fill="black"/>
</svg>
