<svg width="82" height="76" viewBox="0 0 82 76" fill="none" xmlns="http://www.w3.org/2000/svg">
<path d="M0 36.4736C0.00502014 31.6378 1.92647 27.0016 5.34271 23.5821C8.75895 20.1627 13.3909 18.2395 18.2222 18.2345H33.3315C34.4362 18.1699 53.6872 16.8133 72.0195 1.42411C72.9048 0.679923 73.9839 0.204065 75.13 0.0524305C76.2761 -0.0992037 77.4416 0.0796846 78.4896 0.568081C79.5377 1.05648 80.4247 1.8341 81.0465 2.80959C81.6683 3.78509 81.9991 4.91794 82 6.07508V66.8721C81.9998 68.0295 81.6696 69.1629 81.0481 70.139C80.4265 71.115 79.5395 71.8932 78.4914 72.3821C77.4432 72.8709 76.2773 73.0502 75.1309 72.8987C73.9845 72.7472 72.9051 72.2712 72.0195 71.5269C57.6809 59.4891 42.7881 56.0388 36.4444 55.0737V67.1267C36.4457 68.1285 36.1996 69.1151 35.7281 69.9988C35.2565 70.8825 34.5741 71.6358 33.7415 72.1918L29.5656 74.9771C28.7584 75.5163 27.8339 75.8541 26.8695 75.9622C25.9051 76.0703 24.9289 75.9456 24.0226 75.5984C23.1163 75.2513 22.3062 74.6918 21.6603 73.9669C21.0144 73.242 20.5515 72.3727 20.3102 71.4319L15.8419 54.5759C11.4583 53.9921 7.4355 51.8348 4.5216 48.5052C1.6077 45.1755 0.000923157 40.9 0 36.4736ZM75.9259 66.8455V6.07508C59.674 19.7202 43.0386 23.1742 36.4444 24.0254V48.9066C43.031 49.7729 59.6626 53.2194 75.9259 66.8455ZM26.1944 69.8853V69.9271L30.3704 67.1419V54.7127H22.1704L26.1944 69.8853ZM18.2222 48.633H30.3704V24.3142H18.2222C15.0003 24.3142 11.9104 25.5953 9.63219 27.8756C7.35397 30.1559 6.07407 33.2487 6.07407 36.4736C6.07407 39.6985 7.35397 42.7912 9.63219 45.0716C11.9104 47.3519 15.0003 48.633 18.2222 48.633Z" fill="#D49E3C"/>
</svg>
