<svg width="152" height="152" viewBox="0 0 152 152" fill="none" xmlns="http://www.w3.org/2000/svg">
<path d="M48.6562 113.528C47.2224 113.528 45.8473 112.959 44.8335 111.945C43.8196 110.931 43.25 109.556 43.25 108.122V43.2471C43.2505 42.3259 43.4864 41.4202 43.9352 40.6157C44.3841 39.8113 45.031 39.1349 45.8147 38.6507C46.5984 38.1666 47.4928 37.8907 48.413 37.8492C49.3332 37.8078 50.2488 38.0022 51.0728 38.4139L115.948 70.8514C116.845 71.3009 117.599 71.991 118.126 72.8446C118.653 73.6981 118.932 74.6815 118.932 75.6846C118.932 76.6877 118.653 77.6711 118.126 78.5247C117.599 79.3782 116.845 80.0683 115.948 80.5178L51.0728 112.955C50.3227 113.331 49.4953 113.527 48.6562 113.528ZM54.0625 51.9944V99.3748L101.443 75.6846L54.0625 51.9944Z" fill="white"/>
<path d="M75.6875 10.8125C88.5186 10.8125 101.062 14.6174 111.73 21.7459C122.399 28.8745 130.714 39.0066 135.624 50.8609C140.534 62.7153 141.819 75.7595 139.316 88.344C136.813 100.928 130.634 112.488 121.561 121.561C112.488 130.634 100.929 136.813 88.344 139.316C75.7595 141.819 62.7153 140.534 50.8609 135.624C39.0066 130.714 28.8745 122.399 21.7459 111.73C14.6174 101.061 10.8125 88.5186 10.8125 75.6875C10.8125 58.4816 17.6476 41.9804 29.814 29.8139C41.9804 17.6475 58.4816 10.8125 75.6875 10.8125ZM75.6875 0C60.718 0 46.0846 4.439 33.6378 12.7556C21.1911 21.0723 11.49 32.8931 5.7614 46.7231C0.0327941 60.5532 -1.46607 75.7715 1.45435 90.4534C4.37477 105.135 11.5833 118.622 22.1684 129.207C32.7535 139.792 46.2397 147 60.9216 149.921C75.6036 152.841 90.8218 151.342 104.652 145.614C118.482 139.885 130.303 130.184 138.619 117.737C146.936 105.29 151.375 90.6571 151.375 75.6875C151.375 55.6139 143.401 36.3625 129.207 22.1684C115.013 7.9742 95.7611 0 75.6875 0Z" fill="white"/>
</svg>
