<svg width="100" height="100" viewBox="0 0 100 100" fill="none" xmlns="http://www.w3.org/2000/svg">
<circle cx="50" cy="50" r="49.5" stroke="#D49E3C"/>
<path d="M40.56 64V61.96L52.2 50.56C53.2667 49.52 54.0667 48.6133 54.6 47.84C55.1333 47.04 55.4933 46.2933 55.68 45.6C55.8667 44.9067 55.96 44.2533 55.96 43.64C55.96 42.0133 55.4 40.7333 54.28 39.8C53.1867 38.8667 51.56 38.4 49.4 38.4C47.7467 38.4 46.28 38.6533 45 39.16C43.7467 39.6667 42.6667 40.4533 41.76 41.52L39.72 39.76C40.8133 38.48 42.2133 37.4933 43.92 36.8C45.6267 36.1067 47.5333 35.76 49.64 35.76C51.5333 35.76 53.1733 36.0667 54.56 36.68C55.9467 37.2667 57.0133 38.1333 57.76 39.28C58.5333 40.4267 58.92 41.7733 58.92 43.32C58.92 44.2267 58.7867 45.12 58.52 46C58.28 46.88 57.8267 47.8133 57.16 48.8C56.52 49.76 55.5733 50.8533 54.32 52.08L43.64 62.56L42.84 61.44H60.2V64H40.56Z" fill="white"/>
</svg>
