<svg width="100" height="100" viewBox="0 0 100 100" fill="none" xmlns="http://www.w3.org/2000/svg">
<circle cx="50" cy="50" r="49.5" stroke="#D49E3C"/>
<path d="M50.44 64.24C48.4133 64.24 46.4933 63.92 44.68 63.28C42.8933 62.6133 41.4533 61.7333 40.36 60.64L41.76 58.36C42.6667 59.2933 43.88 60.0667 45.4 60.68C46.9467 61.2933 48.6267 61.6 50.44 61.6C52.76 61.6 54.5333 61.0933 55.76 60.08C57.0133 59.0667 57.64 57.7067 57.64 56C57.64 54.2933 57.0267 52.9333 55.8 51.92C54.6 50.9067 52.6933 50.4 50.08 50.4H48.08V48.28L56.72 37.44L57.12 38.56H41.52V36H59.52V38.04L50.88 48.88L49.48 47.96H50.56C53.92 47.96 56.4267 48.7067 58.08 50.2C59.76 51.6933 60.6 53.6133 60.6 55.96C60.6 57.5333 60.2267 58.9467 59.48 60.2C58.7333 61.4533 57.6 62.44 56.08 63.16C54.5867 63.88 52.7067 64.24 50.44 64.24Z" fill="white"/>
</svg>
