<svg width="53" height="41" viewBox="0 0 53 41" fill="none" xmlns="http://www.w3.org/2000/svg">
<path d="M11.7591 40.6383C11.7706 40.6459 11.7858 40.6421 11.7973 40.6497C11.8874 40.6998 11.9882 40.7278 12.0913 40.7312C12.1481 40.7311 12.2046 40.7234 12.2593 40.7083L26.0928 36.933L39.9262 40.7083C39.9809 40.7234 40.0374 40.7311 40.0942 40.7312C40.1971 40.7281 40.2976 40.6997 40.3869 40.6484C40.3997 40.6421 40.4137 40.6446 40.4251 40.637L51.8809 33.6363C51.9992 33.5636 52.0906 33.4543 52.1411 33.3249C52.1917 33.1956 52.1986 33.0533 52.1609 32.9196L45.817 10.6446C45.791 10.5519 45.7443 10.4662 45.6803 10.3942C45.6164 10.3221 45.5369 10.2655 45.4479 10.2288C45.3588 10.192 45.2626 10.1759 45.1664 10.1818C45.0703 10.1877 44.9767 10.2154 44.8929 10.2628L38.5769 13.8064C38.4386 13.8937 38.3392 14.0309 38.2991 14.1895C38.259 14.3481 38.2814 14.516 38.3617 14.6585C38.442 14.8011 38.5739 14.9073 38.7303 14.9553C38.8867 15.0033 39.0555 14.9893 39.2019 14.9163L44.8139 11.766L50.8053 32.8013L40.6033 39.037L38.1798 19.6501C38.1589 19.4825 38.0722 19.3301 37.9389 19.2263C37.8056 19.1226 37.6365 19.0761 37.4689 19.097C37.3013 19.118 37.1489 19.2046 37.0452 19.3379C36.9414 19.4713 36.8949 19.6403 36.9159 19.8079L39.3432 39.2305L26.7292 35.7874V32.3125C26.7292 32.1437 26.6621 31.9818 26.5428 31.8625C26.4234 31.7431 26.2615 31.6761 26.0928 31.6761C25.924 31.6761 25.7621 31.7431 25.6427 31.8625C25.5234 31.9818 25.4563 32.1437 25.4563 32.3125V35.7874L12.841 39.2305L15.2684 19.8079C15.2787 19.7249 15.2726 19.6407 15.2505 19.5601C15.2283 19.4794 15.1904 19.404 15.1391 19.3379C15.0877 19.2719 15.0239 19.2167 14.9511 19.1753C14.8784 19.134 14.7983 19.1074 14.7153 19.097C14.6323 19.0867 14.5481 19.0928 14.4675 19.1149C14.3868 19.1371 14.3113 19.175 14.2453 19.2263C14.1793 19.2777 14.1241 19.3415 14.0827 19.4143C14.0414 19.487 14.0148 19.5671 14.0044 19.6501L11.5822 39.037L1.38021 32.8025L7.37156 11.7686L12.9836 14.9189C13.13 14.9919 13.2988 15.0058 13.4552 14.9578C13.6116 14.9098 13.7435 14.8036 13.8238 14.6611C13.9041 14.5185 13.9265 14.3506 13.8864 14.192C13.8464 14.0334 13.7469 13.8963 13.6086 13.809L7.29137 10.264C7.20769 10.2161 7.11416 10.188 7.01794 10.1819C6.92171 10.1757 6.82536 10.1917 6.73627 10.2286C6.64717 10.2654 6.56771 10.3222 6.50397 10.3946C6.44023 10.4669 6.3939 10.5529 6.36854 10.6459L0.0246193 32.9209C-0.0137502 33.0545 -0.00712456 33.1971 0.0434759 33.3266C0.0940764 33.4561 0.185845 33.5653 0.304648 33.6375L11.7591 40.6383Z" fill="#EBEBEB"/>
<path d="M25.6612 29.7441C25.7781 29.852 25.9311 29.9122 26.0901 29.9129C26.2491 29.9136 26.4026 29.8548 26.5204 29.748C26.9443 29.3623 36.912 20.2155 36.912 10.8193C36.912 4.75158 32.1604 0 26.0927 0C20.025 0 15.2734 4.75158 15.2734 10.8193C15.2734 20.0526 25.2374 29.3521 25.6612 29.7441ZM26.0927 1.27286C31.5342 1.27286 35.6392 5.37655 35.6392 10.8193C35.6392 18.5799 28.0109 26.5225 26.0965 28.3936C24.186 26.5009 16.5463 18.4539 16.5463 10.8193C16.5463 5.37655 20.6513 1.27286 26.0927 1.27286Z" fill="#EBEBEB"/>
<path d="M31.821 10.8197C31.821 7.6617 29.2511 5.0918 26.0931 5.0918C22.9351 5.0918 20.3652 7.6617 20.3652 10.8197C20.3652 13.9776 22.9351 16.5475 26.0931 16.5475C29.2511 16.5475 31.821 13.9776 31.821 10.8197ZM26.0931 15.2747C23.6365 15.2747 21.6381 13.2763 21.6381 10.8197C21.6381 8.36304 23.6365 6.36466 26.0931 6.36466C28.5497 6.36466 30.5481 8.36304 30.5481 10.8197C30.5481 13.2763 28.5497 15.2747 26.0931 15.2747Z" fill="#EBEBEB"/>
</svg>
