<svg width="15" height="17" viewBox="0 0 15 17" fill="none" xmlns="http://www.w3.org/2000/svg">
<path d="M0.208728 10.0988L7.01626 16.8711L13.8238 10.0988C13.9041 10.0376 13.9704 9.95993 14.018 9.87094C14.0657 9.78195 14.0937 9.68376 14.1001 9.58301C14.1066 9.48226 14.0913 9.3813 14.0553 9.28698C14.0193 9.19265 13.9635 9.10716 13.8916 9.03628C13.8197 8.96541 13.7334 8.91081 13.6386 8.87618C13.5437 8.84155 13.4426 8.8277 13.3419 8.83557C13.2413 8.84343 13.1435 8.87283 13.0552 8.92178C12.9669 8.97072 12.8902 9.03806 12.8301 9.11924L7.72097 14.1861L7.72098 0.704965C7.72098 0.518062 7.64673 0.338817 7.51457 0.206657C7.38241 0.0744985 7.20316 0.000251167 7.01626 0.000251151C6.82936 0.000251134 6.65011 0.0744985 6.51795 0.206657C6.38579 0.338817 6.31155 0.518062 6.31155 0.704965L6.31155 14.1861L1.20238 9.11924C1.06967 8.98748 0.890065 8.91382 0.70306 8.91449C0.516054 8.91515 0.33697 8.99007 0.205205 9.12277C0.0734384 9.25547 -0.00021488 9.43508 0.000446 9.62208C0.00110688 9.80909 0.0760285 9.98817 0.208728 10.1199L0.208728 10.0988Z" fill="#D49E3C"/>
</svg>
