<svg width="142" height="142" viewBox="0 0 142 142" fill="none" xmlns="http://www.w3.org/2000/svg">
<g clip-path="url(#clip0_326_4183)">
<path d="M106.5 0H57.6875C52.7863 0 48.8125 3.97378 48.8125 8.875H97.625V44.375H133.125V115.375H102.062V124.25H133.125C138.026 124.25 142 120.276 142 115.375V35.5022L106.5 0ZM106.5 35.5V12.5493L129.446 35.5H106.5ZM8.875 17.75C3.97378 17.75 0 21.7238 0 26.625V133.125C0 138.026 3.97378 142 8.875 142H84.3125C89.2137 142 93.1875 138.026 93.1875 133.125V53.2522L57.6875 17.75H8.875ZM84.3125 133.125H8.875V26.625H48.8125V62.125H84.3125V133.125ZM57.6875 53.25V30.2992L80.6338 53.25H57.6875Z" fill="#D49E3C"/>
</g>
<defs>
<clipPath id="clip0_326_4183">
<rect width="142" height="142" fill="white"/>
</clipPath>
</defs>
</svg>
