<svg width="17" height="17" viewBox="0 0 17 17" fill="none" xmlns="http://www.w3.org/2000/svg">
<path d="M15.9856 16.6545L9.72359 10.3925C9.22359 10.8185 8.64859 11.1482 7.99859 11.3815C7.34859 11.6149 6.69526 11.7315 6.03859 11.7315C4.43726 11.7315 3.08193 11.1772 1.97259 10.0685C0.863261 8.95987 0.308594 7.60487 0.308594 6.00353C0.308594 4.4022 0.862593 3.04653 1.97059 1.93653C3.07859 0.826533 4.43326 0.270867 6.03459 0.269534C7.63593 0.2682 8.99193 0.822867 10.1026 1.93353C11.2133 3.0442 11.7689 4.39987 11.7696 6.00053C11.7696 6.6952 11.6466 7.36753 11.4006 8.01753C11.1546 8.66753 10.8313 9.22353 10.4306 9.68553L16.6926 15.9465L15.9856 16.6545ZM6.03859 10.7305C7.36526 10.7305 8.48559 10.2739 9.39959 9.36053C10.3136 8.4472 10.7703 7.32687 10.7696 5.99953C10.7689 4.6722 10.3123 3.5522 9.39959 2.63953C8.48693 1.72687 7.36693 1.2702 6.03959 1.26953C4.71226 1.26887 3.59193 1.72553 2.67859 2.63953C1.76526 3.55353 1.30859 4.67353 1.30859 5.99953C1.30859 7.32553 1.76526 8.44553 2.67859 9.35953C3.59193 10.2735 4.71193 10.7312 6.03859 10.7305Z" fill="white"/>
</svg>
